<svg width="166" height="263" viewBox="0 0 166 263" fill="none" xmlns="http://www.w3.org/2000/svg">
<g id="Nv arriv - accueil">
<rect y="0.316406" width="166" height="262" rx="10" fill="white"/>
<g id="acceuil-Mega">
<rect x="43" y="26.3164" width="83" height="27" rx="4" fill="url(#paint0_linear_592_1824)"/>
</g>
<path id="Temacina.Com" d="M47.44 4.33641V5.46641H45.58V11.3164H44.18V5.46641H42.32V4.33641H47.44ZM53.6115 8.42641C53.6115 8.62641 53.5982 8.80641 53.5715 8.96641H49.5215C49.5548 9.36641 49.6948 9.67974 49.9415 9.90641C50.1882 10.1331 50.4915 10.2464 50.8515 10.2464C51.3715 10.2464 51.7415 10.0231 51.9615 9.57641H53.4715C53.3115 10.1097 53.0048 10.5497 52.5515 10.8964C52.0982 11.2364 51.5415 11.4064 50.8815 11.4064C50.3482 11.4064 49.8682 11.2897 49.4415 11.0564C49.0215 10.8164 48.6915 10.4797 48.4515 10.0464C48.2182 9.61307 48.1015 9.11307 48.1015 8.54641C48.1015 7.97307 48.2182 7.46974 48.4515 7.03641C48.6848 6.60307 49.0115 6.26974 49.4315 6.03641C49.8515 5.80307 50.3348 5.68641 50.8815 5.68641C51.4082 5.68641 51.8782 5.79974 52.2915 6.02641C52.7115 6.25307 53.0348 6.57641 53.2615 6.99641C53.4948 7.40974 53.6115 7.88641 53.6115 8.42641ZM52.1615 8.02641C52.1548 7.66641 52.0248 7.37974 51.7715 7.16641C51.5182 6.94641 51.2082 6.83641 50.8415 6.83641C50.4948 6.83641 50.2015 6.94307 49.9615 7.15641C49.7282 7.36307 49.5848 7.65307 49.5315 8.02641H52.1615ZM61.5134 5.69641C62.1934 5.69641 62.74 5.90641 63.1534 6.32641C63.5734 6.73974 63.7834 7.31974 63.7834 8.06641V11.3164H62.3834V8.25641C62.3834 7.82307 62.2734 7.49307 62.0534 7.26641C61.8334 7.03307 61.5334 6.91641 61.1534 6.91641C60.7734 6.91641 60.47 7.03307 60.2434 7.26641C60.0234 7.49307 59.9134 7.82307 59.9134 8.25641V11.3164H58.5134V8.25641C58.5134 7.82307 58.4034 7.49307 58.1834 7.26641C57.9634 7.03307 57.6634 6.91641 57.2834 6.91641C56.8967 6.91641 56.59 7.03307 56.3634 7.26641C56.1434 7.49307 56.0334 7.82307 56.0334 8.25641V11.3164H54.6334V5.77641H56.0334V6.44641C56.2134 6.21307 56.4434 6.02974 56.7234 5.89641C57.01 5.76307 57.3234 5.69641 57.6634 5.69641C58.0967 5.69641 58.4834 5.78974 58.8234 5.97641C59.1634 6.15641 59.4267 6.41641 59.6134 6.75641C59.7934 6.43641 60.0534 6.17974 60.3934 5.98641C60.74 5.79307 61.1134 5.69641 61.5134 5.69641ZM64.7519 8.52641C64.7519 7.96641 64.8619 7.46974 65.0819 7.03641C65.3085 6.60307 65.6119 6.26974 65.9919 6.03641C66.3785 5.80307 66.8085 5.68641 67.2819 5.68641C67.6952 5.68641 68.0552 5.76974 68.3619 5.93641C68.6752 6.10307 68.9252 6.31307 69.1119 6.56641V5.77641H70.5219V11.3164H69.1119V10.5064C68.9319 10.7664 68.6819 10.9831 68.3619 11.1564C68.0485 11.3231 67.6852 11.4064 67.2719 11.4064C66.8052 11.4064 66.3785 11.2864 65.9919 11.0464C65.6119 10.8064 65.3085 10.4697 65.0819 10.0364C64.8619 9.59641 64.7519 9.09307 64.7519 8.52641ZM69.1119 8.54641C69.1119 8.20641 69.0452 7.91641 68.9119 7.67641C68.7785 7.42974 68.5985 7.24307 68.3719 7.11641C68.1452 6.98307 67.9019 6.91641 67.6419 6.91641C67.3819 6.91641 67.1419 6.97974 66.9219 7.10641C66.7019 7.23307 66.5219 7.41974 66.3819 7.66641C66.2485 7.90641 66.1819 8.19307 66.1819 8.52641C66.1819 8.85974 66.2485 9.15307 66.3819 9.40641C66.5219 9.65307 66.7019 9.84307 66.9219 9.97641C67.1485 10.1097 67.3885 10.1764 67.6419 10.1764C67.9019 10.1764 68.1452 10.1131 68.3719 9.98641C68.5985 9.85307 68.7785 9.66641 68.9119 9.42641C69.0452 9.17974 69.1119 8.88641 69.1119 8.54641ZM71.5292 8.54641C71.5292 7.97307 71.6459 7.47307 71.8792 7.04641C72.1126 6.61307 72.4359 6.27974 72.8492 6.04641C73.2626 5.80641 73.7359 5.68641 74.2692 5.68641C74.9559 5.68641 75.5226 5.85974 75.9692 6.20641C76.4226 6.54641 76.7259 7.02641 76.8792 7.64641H75.3692C75.2892 7.40641 75.1526 7.21974 74.9592 7.08641C74.7726 6.94641 74.5392 6.87641 74.2592 6.87641C73.8592 6.87641 73.5426 7.02307 73.3092 7.31641C73.0759 7.60307 72.9592 8.01307 72.9592 8.54641C72.9592 9.07307 73.0759 9.48307 73.3092 9.77641C73.5426 10.0631 73.8592 10.2064 74.2592 10.2064C74.8259 10.2064 75.1959 9.95307 75.3692 9.44641H76.8792C76.7259 10.0464 76.4226 10.5231 75.9692 10.8764C75.5159 11.2297 74.9492 11.4064 74.2692 11.4064C73.7359 11.4064 73.2626 11.2897 72.8492 11.0564C72.4359 10.8164 72.1126 10.4831 71.8792 10.0564C71.6459 9.62307 71.5292 9.11974 71.5292 8.54641ZM78.6148 5.11641C78.3682 5.11641 78.1615 5.03974 77.9948 4.88641C77.8348 4.72641 77.7548 4.52974 77.7548 4.29641C77.7548 4.06307 77.8348 3.86974 77.9948 3.71641C78.1615 3.55641 78.3682 3.47641 78.6148 3.47641C78.8615 3.47641 79.0648 3.55641 79.2248 3.71641C79.3915 3.86974 79.4748 4.06307 79.4748 4.29641C79.4748 4.52974 79.3915 4.72641 79.2248 4.88641C79.0648 5.03974 78.8615 5.11641 78.6148 5.11641ZM79.3048 5.77641V11.3164H77.9048V5.77641H79.3048ZM83.758 5.69641C84.418 5.69641 84.9514 5.90641 85.358 6.32641C85.7647 6.73974 85.968 7.31974 85.968 8.06641V11.3164H84.568V8.25641C84.568 7.81641 84.458 7.47974 84.238 7.24641C84.018 7.00641 83.718 6.88641 83.338 6.88641C82.9514 6.88641 82.6447 7.00641 82.418 7.24641C82.198 7.47974 82.088 7.81641 82.088 8.25641V11.3164H80.688V5.77641H82.088V6.46641C82.2747 6.22641 82.5114 6.03974 82.798 5.90641C83.0914 5.76641 83.4114 5.69641 83.758 5.69641ZM86.9394 8.52641C86.9394 7.96641 87.0494 7.46974 87.2694 7.03641C87.496 6.60307 87.7994 6.26974 88.1794 6.03641C88.566 5.80307 88.996 5.68641 89.4694 5.68641C89.8827 5.68641 90.2427 5.76974 90.5494 5.93641C90.8627 6.10307 91.1127 6.31307 91.2994 6.56641V5.77641H92.7094V11.3164H91.2994V10.5064C91.1194 10.7664 90.8694 10.9831 90.5494 11.1564C90.236 11.3231 89.8727 11.4064 89.4594 11.4064C88.9927 11.4064 88.566 11.2864 88.1794 11.0464C87.7994 10.8064 87.496 10.4697 87.2694 10.0364C87.0494 9.59641 86.9394 9.09307 86.9394 8.52641ZM91.2994 8.54641C91.2994 8.20641 91.2327 7.91641 91.0994 7.67641C90.966 7.42974 90.786 7.24307 90.5594 7.11641C90.3327 6.98307 90.0894 6.91641 89.8294 6.91641C89.5694 6.91641 89.3294 6.97974 89.1094 7.10641C88.8894 7.23307 88.7094 7.41974 88.5694 7.66641C88.436 7.90641 88.3694 8.19307 88.3694 8.52641C88.3694 8.85974 88.436 9.15307 88.5694 9.40641C88.7094 9.65307 88.8894 9.84307 89.1094 9.97641C89.336 10.1097 89.576 10.1764 89.8294 10.1764C90.0894 10.1764 90.3327 10.1131 90.5594 9.98641C90.786 9.85307 90.966 9.66641 91.0994 9.42641C91.2327 9.17974 91.2994 8.88641 91.2994 8.54641ZM94.6967 11.3864C94.4434 11.3864 94.2334 11.3097 94.0667 11.1564C93.9067 10.9964 93.8267 10.7997 93.8267 10.5664C93.8267 10.3331 93.9067 10.1397 94.0667 9.98641C94.2334 9.82641 94.4434 9.74641 94.6967 9.74641C94.9434 9.74641 95.1467 9.82641 95.3067 9.98641C95.4667 10.1397 95.5467 10.3331 95.5467 10.5664C95.5467 10.7997 95.4667 10.9964 95.3067 11.1564C95.1467 11.3097 94.9434 11.3864 94.6967 11.3864ZM96.3344 7.81641C96.3344 7.12974 96.4877 6.51641 96.7944 5.97641C97.1077 5.42974 97.531 5.00641 98.0644 4.70641C98.6044 4.39974 99.2077 4.24641 99.8744 4.24641C100.654 4.24641 101.338 4.44641 101.924 4.84641C102.511 5.24641 102.921 5.79974 103.154 6.50641H101.544C101.384 6.17307 101.158 5.92307 100.864 5.75641C100.578 5.58974 100.244 5.50641 99.8644 5.50641C99.4577 5.50641 99.0944 5.60307 98.7744 5.79641C98.461 5.98307 98.2144 6.24974 98.0344 6.59641C97.861 6.94307 97.7744 7.34974 97.7744 7.81641C97.7744 8.27641 97.861 8.68307 98.0344 9.03641C98.2144 9.38307 98.461 9.65307 98.7744 9.84641C99.0944 10.0331 99.4577 10.1264 99.8644 10.1264C100.244 10.1264 100.578 10.0431 100.864 9.87641C101.158 9.70307 101.384 9.44974 101.544 9.11641H103.154C102.921 9.82974 102.511 10.3864 101.924 10.7864C101.344 11.1797 100.661 11.3764 99.8744 11.3764C99.2077 11.3764 98.6044 11.2264 98.0644 10.9264C97.531 10.6197 97.1077 10.1964 96.7944 9.65641C96.4877 9.11641 96.3344 8.50307 96.3344 7.81641ZM106.81 11.4064C106.277 11.4064 105.797 11.2897 105.37 11.0564C104.943 10.8164 104.607 10.4797 104.36 10.0464C104.12 9.61307 104 9.11307 104 8.54641C104 7.97974 104.123 7.47974 104.37 7.04641C104.623 6.61307 104.967 6.27974 105.4 6.04641C105.833 5.80641 106.317 5.68641 106.85 5.68641C107.383 5.68641 107.867 5.80641 108.3 6.04641C108.733 6.27974 109.073 6.61307 109.32 7.04641C109.573 7.47974 109.7 7.97974 109.7 8.54641C109.7 9.11307 109.57 9.61307 109.31 10.0464C109.057 10.4797 108.71 10.8164 108.27 11.0564C107.837 11.2897 107.35 11.4064 106.81 11.4064ZM106.81 10.1864C107.063 10.1864 107.3 10.1264 107.52 10.0064C107.747 9.87974 107.927 9.69307 108.06 9.44641C108.193 9.19974 108.26 8.89974 108.26 8.54641C108.26 8.01974 108.12 7.61641 107.84 7.33641C107.567 7.04974 107.23 6.90641 106.83 6.90641C106.43 6.90641 106.093 7.04974 105.82 7.33641C105.553 7.61641 105.42 8.01974 105.42 8.54641C105.42 9.07307 105.55 9.47974 105.81 9.76641C106.077 10.0464 106.41 10.1864 106.81 10.1864ZM117.607 5.69641C118.287 5.69641 118.834 5.90641 119.247 6.32641C119.667 6.73974 119.877 7.31974 119.877 8.06641V11.3164H118.477V8.25641C118.477 7.82307 118.367 7.49307 118.147 7.26641C117.927 7.03307 117.627 6.91641 117.247 6.91641C116.867 6.91641 116.564 7.03307 116.337 7.26641C116.117 7.49307 116.007 7.82307 116.007 8.25641V11.3164H114.607V8.25641C114.607 7.82307 114.497 7.49307 114.277 7.26641C114.057 7.03307 113.757 6.91641 113.377 6.91641C112.99 6.91641 112.684 7.03307 112.457 7.26641C112.237 7.49307 112.127 7.82307 112.127 8.25641V11.3164H110.727V5.77641H112.127V6.44641C112.307 6.21307 112.537 6.02974 112.817 5.89641C113.104 5.76307 113.417 5.69641 113.757 5.69641C114.19 5.69641 114.577 5.78974 114.917 5.97641C115.257 6.15641 115.52 6.41641 115.707 6.75641C115.887 6.43641 116.147 6.17974 116.487 5.98641C116.834 5.79307 117.207 5.69641 117.607 5.69641Z" fill="#FF561C"/>
<g id=".line">
<rect x="46" y="16.3164" width="74" height="2" rx="1" fill="url(#paint1_linear_592_1824)"/>
</g>
<g id=".line_2">
<rect x="46" y="55.3164" width="74" height="2" rx="1" fill="url(#paint2_linear_592_1824)"/>
</g>
<g id=".line_3">
<rect x="47" y="78.3164" width="74" height="2" rx="1" fill="url(#paint3_linear_592_1824)"/>
</g>
<g id=".line_4">
<rect x="47" y="123.316" width="74" height="2" rx="1" fill="url(#paint4_linear_592_1824)"/>
</g>
<g id=".line_5">
<rect x="46" y="20.3164" width="74" height="2" rx="1" fill="url(#paint5_linear_592_1824)"/>
</g>
<g id="Skeleton">
<rect x="132" y="26.3164" width="27" height="12" rx="4" fill="url(#paint6_linear_592_1824)"/>
</g>
<g id="Skeleton_2">
<rect x="132" y="41.3164" width="27" height="12" rx="4" fill="url(#paint7_linear_592_1824)"/>
</g>
<g id="mr-produits">
<rect x="63" y="59.3164" width="37" height="16" rx="4" fill="url(#paint8_linear_592_1824)"/>
</g>
<g id="soldes">
<rect x="106" y="59.3164" width="37" height="16" rx="4" fill="url(#paint9_linear_592_1824)"/>
</g>
<g id="Group 14">
<g id="Skeleton_5">
<rect x="6" y="26.3164" width="33" height="5.41463" rx="2.70732" fill="url(#paint10_linear_592_1824)"/>
</g>
<g id="Skeleton_6">
<rect x="6" y="33.4873" width="33" height="5.26829" rx="2.63415" fill="#94EA7E"/>
</g>
<g id="Skeleton_7">
<rect x="6" y="40.5117" width="33" height="5.41463" rx="2.70732" fill="#FED61E"/>
</g>
<g id="Skeleton_8">
<rect x="6" y="47.6821" width="33" height="5.63415" rx="2.81707" fill="#66CEEE"/>
</g>
</g>
<g id="alg-ind">
<rect x="20" y="83.3164" width="63" height="17" rx="4" fill="url(#paint11_linear_592_1824)"/>
</g>
<g id="alg-con">
<rect x="20" y="103.316" width="63" height="17" rx="4" fill="url(#paint12_linear_592_1824)"/>
</g>
<g id="alg-agr">
<rect x="87" y="83.3164" width="63" height="17" rx="4" fill="url(#paint13_linear_592_1824)"/>
</g>
<g id="nv-arrivage">
<rect x="19" y="59" width="37" height="16" rx="4" fill="url(#paint14_linear_592_1824)"/>
</g>
<g id="alg-tech">
<rect x="87" y="103.316" width="63" height="17" rx="4" fill="url(#paint15_linear_592_1824)"/>
</g>
<g id="Group 34">
<g id=".line_6">
<rect x="46" y="167" width="74" height="2" rx="1" fill="url(#paint16_linear_592_1824)"/>
</g>
<g id="int-ind">
<rect x="19" y="128" width="63" height="17" rx="4" fill="url(#paint17_linear_592_1824)"/>
</g>
<g id="st-ind">
<rect x="19" y="223" width="63" height="17" rx="4" fill="url(#paint18_linear_592_1824)"/>
</g>
<g id="int-con">
<rect x="19" y="148" width="63" height="17" rx="4" fill="url(#paint19_linear_592_1824)"/>
</g>
<g id="st-con">
<rect x="19" y="243" width="63" height="17" rx="4" fill="url(#paint20_linear_592_1824)"/>
</g>
<g id="int-agr">
<rect x="86" y="128" width="63" height="17" rx="4" fill="url(#paint21_linear_592_1824)"/>
</g>
<g id="st-agr">
<rect x="86" y="223" width="63" height="17" rx="4" fill="url(#paint22_linear_592_1824)"/>
</g>
<g id="int-tech">
<rect x="86" y="148" width="63" height="17" rx="4" fill="url(#paint23_linear_592_1824)"/>
</g>
<g id="st-tech">
<rect x="86" y="243" width="63" height="17" rx="4" fill="url(#paint24_linear_592_1824)"/>
</g>
<g id="Group 32">
<g id=".line_7">
<rect x="46.8545" y="218.636" width="74" height="2" rx="1" fill="url(#paint25_linear_592_1824)"/>
</g>
<g id="pa-alg">
<rect x="34.8545" y="171.636" width="12" height="13" rx="4" fill="url(#paint26_linear_592_1824)"/>
</g>
<g id="pa-int">
<rect x="89.8545" y="171.636" width="12" height="13" rx="4" fill="url(#paint27_linear_592_1824)"/>
</g>
<g id="Skeleton_9">
<rect x="34.8545" y="203.636" width="12" height="13" rx="4" fill="url(#paint28_linear_592_1824)"/>
</g>
<g id="Skeleton_10">
<rect x="89.8545" y="203.636" width="12" height="13" rx="4" fill="url(#paint29_linear_592_1824)"/>
</g>
<g id="Skeleton_11">
<rect x="34.8545" y="187.636" width="12" height="13" rx="4" fill="url(#paint30_linear_592_1824)"/>
</g>
<g id="Skeleton_12">
<rect x="89.8545" y="187.636" width="12" height="13" rx="4" fill="url(#paint31_linear_592_1824)"/>
</g>
<g id="Skeleton_13">
<rect x="50.8545" y="171.636" width="12" height="13" rx="4" fill="url(#paint32_linear_592_1824)"/>
</g>
<g id="Skeleton_14">
<rect x="105.854" y="171.636" width="12" height="13" rx="4" fill="url(#paint33_linear_592_1824)"/>
</g>
<g id="Skeleton_15">
<rect x="50.8545" y="203.636" width="12" height="13" rx="4" fill="url(#paint34_linear_592_1824)"/>
</g>
<g id="Skeleton_16">
<rect x="105.854" y="203.636" width="12" height="13" rx="4" fill="url(#paint35_linear_592_1824)"/>
</g>
<g id="Skeleton_17">
<rect x="50.8545" y="187.636" width="12" height="13" rx="4" fill="url(#paint36_linear_592_1824)"/>
</g>
<g id="Skeleton_18">
<rect x="105.854" y="187.636" width="12" height="13" rx="4" fill="url(#paint37_linear_592_1824)"/>
</g>
<g id="Skeleton_19">
<rect x="66.8545" y="171.636" width="12" height="13" rx="4" fill="url(#paint38_linear_592_1824)"/>
</g>
<g id="Skeleton_20">
<rect x="121.854" y="171.636" width="12" height="13" rx="4" fill="url(#paint39_linear_592_1824)"/>
</g>
<g id="Skeleton_21">
<rect x="66.8545" y="203.636" width="12" height="13" rx="4" fill="url(#paint40_linear_592_1824)"/>
</g>
<g id="Skeleton_22">
<rect x="121.854" y="203.636" width="12" height="13" rx="4" fill="url(#paint41_linear_592_1824)"/>
</g>
<g id="Skeleton_23">
<rect x="66.8545" y="187.636" width="12" height="13" rx="4" fill="url(#paint42_linear_592_1824)"/>
</g>
<g id="Skeleton_24">
<rect x="121.854" y="187.636" width="12" height="13" rx="4" fill="url(#paint43_linear_592_1824)"/>
</g>
</g>
</g>
</g>
<defs>
<linearGradient id="paint0_linear_592_1824" x1="43" y1="39.8164" x2="126" y2="39.8164" gradientUnits="userSpaceOnUse">
<stop stop-color="#E2E8F0"/>
<stop offset="1" stop-color="#EDF2F7"/>
</linearGradient>
<linearGradient id="paint1_linear_592_1824" x1="46" y1="17.3164" x2="120" y2="17.3164" gradientUnits="userSpaceOnUse">
<stop stop-color="#E2E8F0"/>
<stop offset="1" stop-color="#EDF2F7"/>
</linearGradient>
<linearGradient id="paint2_linear_592_1824" x1="46" y1="56.3164" x2="120" y2="56.3164" gradientUnits="userSpaceOnUse">
<stop stop-color="#E2E8F0"/>
<stop offset="1" stop-color="#EDF2F7"/>
</linearGradient>
<linearGradient id="paint3_linear_592_1824" x1="47" y1="79.3164" x2="121" y2="79.3164" gradientUnits="userSpaceOnUse">
<stop stop-color="#E2E8F0"/>
<stop offset="1" stop-color="#EDF2F7"/>
</linearGradient>
<linearGradient id="paint4_linear_592_1824" x1="47" y1="124.316" x2="121" y2="124.316" gradientUnits="userSpaceOnUse">
<stop stop-color="#E2E8F0"/>
<stop offset="1" stop-color="#EDF2F7"/>
</linearGradient>
<linearGradient id="paint5_linear_592_1824" x1="46" y1="21.3164" x2="120" y2="21.3164" gradientUnits="userSpaceOnUse">
<stop stop-color="#E2E8F0"/>
<stop offset="1" stop-color="#EDF2F7"/>
</linearGradient>
<linearGradient id="paint6_linear_592_1824" x1="132" y1="32.3164" x2="159" y2="32.3164" gradientUnits="userSpaceOnUse">
<stop stop-color="#E2E8F0"/>
<stop offset="1" stop-color="#EDF2F7"/>
</linearGradient>
<linearGradient id="paint7_linear_592_1824" x1="132" y1="47.3164" x2="159" y2="47.3164" gradientUnits="userSpaceOnUse">
<stop stop-color="#E2E8F0"/>
<stop offset="1" stop-color="#EDF2F7"/>
</linearGradient>
<linearGradient id="paint8_linear_592_1824" x1="63" y1="67.3164" x2="100" y2="67.3164" gradientUnits="userSpaceOnUse">
<stop stop-color="#E2E8F0"/>
<stop offset="1" stop-color="#EDF2F7"/>
</linearGradient>
<linearGradient id="paint9_linear_592_1824" x1="106" y1="67.3164" x2="143" y2="67.3164" gradientUnits="userSpaceOnUse">
<stop stop-color="#E2E8F0"/>
<stop offset="1" stop-color="#EDF2F7"/>
</linearGradient>
<linearGradient id="paint10_linear_592_1824" x1="6" y1="29.0237" x2="39" y2="29.0237" gradientUnits="userSpaceOnUse">
<stop stop-color="#E2E8F0"/>
<stop offset="1" stop-color="#EDF2F7"/>
</linearGradient>
<linearGradient id="paint11_linear_592_1824" x1="20" y1="91.8164" x2="83" y2="91.8164" gradientUnits="userSpaceOnUse">
<stop stop-color="#E2E8F0"/>
<stop offset="1" stop-color="#EDF2F7"/>
</linearGradient>
<linearGradient id="paint12_linear_592_1824" x1="20" y1="111.816" x2="83" y2="111.816" gradientUnits="userSpaceOnUse">
<stop stop-color="#E2E8F0"/>
<stop offset="1" stop-color="#EDF2F7"/>
</linearGradient>
<linearGradient id="paint13_linear_592_1824" x1="87" y1="91.8164" x2="150" y2="91.8164" gradientUnits="userSpaceOnUse">
<stop stop-color="#E2E8F0"/>
<stop offset="1" stop-color="#EDF2F7"/>
</linearGradient>
<linearGradient id="paint14_linear_592_1824" x1="19" y1="67" x2="56" y2="67" gradientUnits="userSpaceOnUse">
<stop stop-color="#E2E8F0"/>
<stop offset="1" stop-color="#EDF2F7"/>
</linearGradient>
<linearGradient id="paint15_linear_592_1824" x1="87" y1="111.816" x2="150" y2="111.816" gradientUnits="userSpaceOnUse">
<stop stop-color="#E2E8F0"/>
<stop offset="1" stop-color="#EDF2F7"/>
</linearGradient>
<linearGradient id="paint16_linear_592_1824" x1="46" y1="168" x2="120" y2="168" gradientUnits="userSpaceOnUse">
<stop stop-color="#E2E8F0"/>
<stop offset="1" stop-color="#EDF2F7"/>
</linearGradient>
<linearGradient id="paint17_linear_592_1824" x1="19" y1="136.5" x2="82" y2="136.5" gradientUnits="userSpaceOnUse">
<stop stop-color="#E2E8F0"/>
<stop offset="1" stop-color="#EDF2F7"/>
</linearGradient>
<linearGradient id="paint18_linear_592_1824" x1="19" y1="231.5" x2="82" y2="231.5" gradientUnits="userSpaceOnUse">
<stop stop-color="#E2E8F0"/>
<stop offset="1" stop-color="#EDF2F7"/>
</linearGradient>
<linearGradient id="paint19_linear_592_1824" x1="19" y1="156.5" x2="82" y2="156.5" gradientUnits="userSpaceOnUse">
<stop stop-color="#E2E8F0"/>
<stop offset="1" stop-color="#EDF2F7"/>
</linearGradient>
<linearGradient id="paint20_linear_592_1824" x1="19" y1="251.5" x2="82" y2="251.5" gradientUnits="userSpaceOnUse">
<stop stop-color="#E2E8F0"/>
<stop offset="1" stop-color="#EDF2F7"/>
</linearGradient>
<linearGradient id="paint21_linear_592_1824" x1="86" y1="136.5" x2="149" y2="136.5" gradientUnits="userSpaceOnUse">
<stop stop-color="#E2E8F0"/>
<stop offset="1" stop-color="#EDF2F7"/>
</linearGradient>
<linearGradient id="paint22_linear_592_1824" x1="86" y1="231.5" x2="149" y2="231.5" gradientUnits="userSpaceOnUse">
<stop stop-color="#E2E8F0"/>
<stop offset="1" stop-color="#EDF2F7"/>
</linearGradient>
<linearGradient id="paint23_linear_592_1824" x1="86" y1="156.5" x2="149" y2="156.5" gradientUnits="userSpaceOnUse">
<stop stop-color="#E2E8F0"/>
<stop offset="1" stop-color="#EDF2F7"/>
</linearGradient>
<linearGradient id="paint24_linear_592_1824" x1="86" y1="251.5" x2="149" y2="251.5" gradientUnits="userSpaceOnUse">
<stop stop-color="#E2E8F0"/>
<stop offset="1" stop-color="#EDF2F7"/>
</linearGradient>
<linearGradient id="paint25_linear_592_1824" x1="46.8545" y1="219.636" x2="120.854" y2="219.636" gradientUnits="userSpaceOnUse">
<stop stop-color="#E2E8F0"/>
<stop offset="1" stop-color="#EDF2F7"/>
</linearGradient>
<linearGradient id="paint26_linear_592_1824" x1="34.8545" y1="178.136" x2="46.8545" y2="178.136" gradientUnits="userSpaceOnUse">
<stop stop-color="#E2E8F0"/>
<stop offset="1" stop-color="#EDF2F7"/>
</linearGradient>
<linearGradient id="paint27_linear_592_1824" x1="89.8545" y1="178.136" x2="101.854" y2="178.136" gradientUnits="userSpaceOnUse">
<stop stop-color="#E2E8F0"/>
<stop offset="1" stop-color="#EDF2F7"/>
</linearGradient>
<linearGradient id="paint28_linear_592_1824" x1="34.8545" y1="210.136" x2="46.8545" y2="210.136" gradientUnits="userSpaceOnUse">
<stop stop-color="#E2E8F0"/>
<stop offset="1" stop-color="#EDF2F7"/>
</linearGradient>
<linearGradient id="paint29_linear_592_1824" x1="89.8545" y1="210.136" x2="101.854" y2="210.136" gradientUnits="userSpaceOnUse">
<stop stop-color="#E2E8F0"/>
<stop offset="1" stop-color="#EDF2F7"/>
</linearGradient>
<linearGradient id="paint30_linear_592_1824" x1="34.8545" y1="194.136" x2="46.8545" y2="194.136" gradientUnits="userSpaceOnUse">
<stop stop-color="#E2E8F0"/>
<stop offset="1" stop-color="#EDF2F7"/>
</linearGradient>
<linearGradient id="paint31_linear_592_1824" x1="89.8545" y1="194.136" x2="101.854" y2="194.136" gradientUnits="userSpaceOnUse">
<stop stop-color="#E2E8F0"/>
<stop offset="1" stop-color="#EDF2F7"/>
</linearGradient>
<linearGradient id="paint32_linear_592_1824" x1="50.8545" y1="178.136" x2="62.8545" y2="178.136" gradientUnits="userSpaceOnUse">
<stop stop-color="#E2E8F0"/>
<stop offset="1" stop-color="#EDF2F7"/>
</linearGradient>
<linearGradient id="paint33_linear_592_1824" x1="105.854" y1="178.136" x2="117.854" y2="178.136" gradientUnits="userSpaceOnUse">
<stop stop-color="#E2E8F0"/>
<stop offset="1" stop-color="#EDF2F7"/>
</linearGradient>
<linearGradient id="paint34_linear_592_1824" x1="50.8545" y1="210.136" x2="62.8545" y2="210.136" gradientUnits="userSpaceOnUse">
<stop stop-color="#E2E8F0"/>
<stop offset="1" stop-color="#EDF2F7"/>
</linearGradient>
<linearGradient id="paint35_linear_592_1824" x1="105.854" y1="210.136" x2="117.854" y2="210.136" gradientUnits="userSpaceOnUse">
<stop stop-color="#E2E8F0"/>
<stop offset="1" stop-color="#EDF2F7"/>
</linearGradient>
<linearGradient id="paint36_linear_592_1824" x1="50.8545" y1="194.136" x2="62.8545" y2="194.136" gradientUnits="userSpaceOnUse">
<stop stop-color="#E2E8F0"/>
<stop offset="1" stop-color="#EDF2F7"/>
</linearGradient>
<linearGradient id="paint37_linear_592_1824" x1="105.854" y1="194.136" x2="117.854" y2="194.136" gradientUnits="userSpaceOnUse">
<stop stop-color="#E2E8F0"/>
<stop offset="1" stop-color="#EDF2F7"/>
</linearGradient>
<linearGradient id="paint38_linear_592_1824" x1="66.8545" y1="178.136" x2="78.8545" y2="178.136" gradientUnits="userSpaceOnUse">
<stop stop-color="#E2E8F0"/>
<stop offset="1" stop-color="#EDF2F7"/>
</linearGradient>
<linearGradient id="paint39_linear_592_1824" x1="121.854" y1="178.136" x2="133.854" y2="178.136" gradientUnits="userSpaceOnUse">
<stop stop-color="#E2E8F0"/>
<stop offset="1" stop-color="#EDF2F7"/>
</linearGradient>
<linearGradient id="paint40_linear_592_1824" x1="66.8545" y1="210.136" x2="78.8545" y2="210.136" gradientUnits="userSpaceOnUse">
<stop stop-color="#E2E8F0"/>
<stop offset="1" stop-color="#EDF2F7"/>
</linearGradient>
<linearGradient id="paint41_linear_592_1824" x1="121.854" y1="210.136" x2="133.854" y2="210.136" gradientUnits="userSpaceOnUse">
<stop stop-color="#E2E8F0"/>
<stop offset="1" stop-color="#EDF2F7"/>
</linearGradient>
<linearGradient id="paint42_linear_592_1824" x1="66.8545" y1="194.136" x2="78.8545" y2="194.136" gradientUnits="userSpaceOnUse">
<stop stop-color="#E2E8F0"/>
<stop offset="1" stop-color="#EDF2F7"/>
</linearGradient>
<linearGradient id="paint43_linear_592_1824" x1="121.854" y1="194.136" x2="133.854" y2="194.136" gradientUnits="userSpaceOnUse">
<stop stop-color="#E2E8F0"/>
<stop offset="1" stop-color="#EDF2F7"/>
</linearGradient>
</defs>
</svg>
