<svg width="166" height="262" viewBox="0 0 166 262" fill="none" xmlns="http://www.w3.org/2000/svg">
<rect width="166" height="262" rx="10" fill="white"/>
<path d="M47.44 4.02V5.15H45.58V11H44.18V5.15H42.32V4.02H47.44ZM53.6115 8.11C53.6115 8.31 53.5982 8.49 53.5715 8.65H49.5215C49.5548 9.05 49.6948 9.36333 49.9415 9.59C50.1882 9.81667 50.4915 9.93 50.8515 9.93C51.3715 9.93 51.7415 9.70667 51.9615 9.26H53.4715C53.3115 9.79333 53.0048 10.2333 52.5515 10.58C52.0982 10.92 51.5415 11.09 50.8815 11.09C50.3482 11.09 49.8682 10.9733 49.4415 10.74C49.0215 10.5 48.6915 10.1633 48.4515 9.73C48.2182 9.29667 48.1015 8.79667 48.1015 8.23C48.1015 7.65667 48.2182 7.15333 48.4515 6.72C48.6848 6.28667 49.0115 5.95333 49.4315 5.72C49.8515 5.48667 50.3348 5.37 50.8815 5.37C51.4082 5.37 51.8782 5.48333 52.2915 5.71C52.7115 5.93667 53.0348 6.26 53.2615 6.68C53.4948 7.09333 53.6115 7.57 53.6115 8.11ZM52.1615 7.71C52.1548 7.35 52.0248 7.06333 51.7715 6.85C51.5182 6.63 51.2082 6.52 50.8415 6.52C50.4948 6.52 50.2015 6.62667 49.9615 6.84C49.7282 7.04667 49.5848 7.33667 49.5315 7.71H52.1615ZM61.5134 5.38C62.1934 5.38 62.74 5.59 63.1534 6.01C63.5734 6.42333 63.7834 7.00333 63.7834 7.75V11H62.3834V7.94C62.3834 7.50667 62.2734 7.17667 62.0534 6.95C61.8334 6.71667 61.5334 6.6 61.1534 6.6C60.7734 6.6 60.47 6.71667 60.2434 6.95C60.0234 7.17667 59.9134 7.50667 59.9134 7.94V11H58.5134V7.94C58.5134 7.50667 58.4034 7.17667 58.1834 6.95C57.9634 6.71667 57.6634 6.6 57.2834 6.6C56.8967 6.6 56.59 6.71667 56.3634 6.95C56.1434 7.17667 56.0334 7.50667 56.0334 7.94V11H54.6334V5.46H56.0334V6.13C56.2134 5.89667 56.4434 5.71333 56.7234 5.58C57.01 5.44667 57.3234 5.38 57.6634 5.38C58.0967 5.38 58.4834 5.47333 58.8234 5.66C59.1634 5.84 59.4267 6.1 59.6134 6.44C59.7934 6.12 60.0534 5.86333 60.3934 5.67C60.74 5.47667 61.1134 5.38 61.5134 5.38ZM64.7519 8.21C64.7519 7.65 64.8619 7.15333 65.0819 6.72C65.3085 6.28667 65.6119 5.95333 65.9919 5.72C66.3785 5.48667 66.8085 5.37 67.2819 5.37C67.6952 5.37 68.0552 5.45333 68.3619 5.62C68.6752 5.78667 68.9252 5.99667 69.1119 6.25V5.46H70.5219V11H69.1119V10.19C68.9319 10.45 68.6819 10.6667 68.3619 10.84C68.0485 11.0067 67.6852 11.09 67.2719 11.09C66.8052 11.09 66.3785 10.97 65.9919 10.73C65.6119 10.49 65.3085 10.1533 65.0819 9.72C64.8619 9.28 64.7519 8.77667 64.7519 8.21ZM69.1119 8.23C69.1119 7.89 69.0452 7.6 68.9119 7.36C68.7785 7.11333 68.5985 6.92667 68.3719 6.8C68.1452 6.66667 67.9019 6.6 67.6419 6.6C67.3819 6.6 67.1419 6.66333 66.9219 6.79C66.7019 6.91667 66.5219 7.10333 66.3819 7.35C66.2485 7.59 66.1819 7.87667 66.1819 8.21C66.1819 8.54333 66.2485 8.83667 66.3819 9.09C66.5219 9.33667 66.7019 9.52667 66.9219 9.66C67.1485 9.79333 67.3885 9.86 67.6419 9.86C67.9019 9.86 68.1452 9.79667 68.3719 9.67C68.5985 9.53667 68.7785 9.35 68.9119 9.11C69.0452 8.86333 69.1119 8.57 69.1119 8.23ZM71.5292 8.23C71.5292 7.65667 71.6459 7.15667 71.8792 6.73C72.1126 6.29667 72.4359 5.96333 72.8492 5.73C73.2626 5.49 73.7359 5.37 74.2692 5.37C74.9559 5.37 75.5226 5.54333 75.9692 5.89C76.4226 6.23 76.7259 6.71 76.8792 7.33H75.3692C75.2892 7.09 75.1526 6.90333 74.9592 6.77C74.7726 6.63 74.5392 6.56 74.2592 6.56C73.8592 6.56 73.5426 6.70667 73.3092 7C73.0759 7.28667 72.9592 7.69667 72.9592 8.23C72.9592 8.75667 73.0759 9.16667 73.3092 9.46C73.5426 9.74667 73.8592 9.89 74.2592 9.89C74.8259 9.89 75.1959 9.63667 75.3692 9.13H76.8792C76.7259 9.73 76.4226 10.2067 75.9692 10.56C75.5159 10.9133 74.9492 11.09 74.2692 11.09C73.7359 11.09 73.2626 10.9733 72.8492 10.74C72.4359 10.5 72.1126 10.1667 71.8792 9.74C71.6459 9.30667 71.5292 8.80333 71.5292 8.23ZM78.6148 4.8C78.3682 4.8 78.1615 4.72333 77.9948 4.57C77.8348 4.41 77.7548 4.21333 77.7548 3.98C77.7548 3.74667 77.8348 3.55333 77.9948 3.4C78.1615 3.24 78.3682 3.16 78.6148 3.16C78.8615 3.16 79.0648 3.24 79.2248 3.4C79.3915 3.55333 79.4748 3.74667 79.4748 3.98C79.4748 4.21333 79.3915 4.41 79.2248 4.57C79.0648 4.72333 78.8615 4.8 78.6148 4.8ZM79.3048 5.46V11H77.9048V5.46H79.3048ZM83.758 5.38C84.418 5.38 84.9514 5.59 85.358 6.01C85.7647 6.42333 85.968 7.00333 85.968 7.75V11H84.568V7.94C84.568 7.5 84.458 7.16333 84.238 6.93C84.018 6.69 83.718 6.57 83.338 6.57C82.9514 6.57 82.6447 6.69 82.418 6.93C82.198 7.16333 82.088 7.5 82.088 7.94V11H80.688V5.46H82.088V6.15C82.2747 5.91 82.5114 5.72333 82.798 5.59C83.0914 5.45 83.4114 5.38 83.758 5.38ZM86.9394 8.21C86.9394 7.65 87.0494 7.15333 87.2694 6.72C87.496 6.28667 87.7994 5.95333 88.1794 5.72C88.566 5.48667 88.996 5.37 89.4694 5.37C89.8827 5.37 90.2427 5.45333 90.5494 5.62C90.8627 5.78667 91.1127 5.99667 91.2994 6.25V5.46H92.7094V11H91.2994V10.19C91.1194 10.45 90.8694 10.6667 90.5494 10.84C90.236 11.0067 89.8727 11.09 89.4594 11.09C88.9927 11.09 88.566 10.97 88.1794 10.73C87.7994 10.49 87.496 10.1533 87.2694 9.72C87.0494 9.28 86.9394 8.77667 86.9394 8.21ZM91.2994 8.23C91.2994 7.89 91.2327 7.6 91.0994 7.36C90.966 7.11333 90.786 6.92667 90.5594 6.8C90.3327 6.66667 90.0894 6.6 89.8294 6.6C89.5694 6.6 89.3294 6.66333 89.1094 6.79C88.8894 6.91667 88.7094 7.10333 88.5694 7.35C88.436 7.59 88.3694 7.87667 88.3694 8.21C88.3694 8.54333 88.436 8.83667 88.5694 9.09C88.7094 9.33667 88.8894 9.52667 89.1094 9.66C89.336 9.79333 89.576 9.86 89.8294 9.86C90.0894 9.86 90.3327 9.79667 90.5594 9.67C90.786 9.53667 90.966 9.35 91.0994 9.11C91.2327 8.86333 91.2994 8.57 91.2994 8.23ZM94.6967 11.07C94.4434 11.07 94.2334 10.9933 94.0667 10.84C93.9067 10.68 93.8267 10.4833 93.8267 10.25C93.8267 10.0167 93.9067 9.82333 94.0667 9.67C94.2334 9.51 94.4434 9.43 94.6967 9.43C94.9434 9.43 95.1467 9.51 95.3067 9.67C95.4667 9.82333 95.5467 10.0167 95.5467 10.25C95.5467 10.4833 95.4667 10.68 95.3067 10.84C95.1467 10.9933 94.9434 11.07 94.6967 11.07ZM96.3344 7.5C96.3344 6.81333 96.4877 6.2 96.7944 5.66C97.1077 5.11333 97.531 4.69 98.0644 4.39C98.6044 4.08333 99.2077 3.93 99.8744 3.93C100.654 3.93 101.338 4.13 101.924 4.53C102.511 4.93 102.921 5.48333 103.154 6.19H101.544C101.384 5.85667 101.158 5.60667 100.864 5.44C100.578 5.27333 100.244 5.19 99.8644 5.19C99.4577 5.19 99.0944 5.28667 98.7744 5.48C98.461 5.66667 98.2144 5.93333 98.0344 6.28C97.861 6.62667 97.7744 7.03333 97.7744 7.5C97.7744 7.96 97.861 8.36667 98.0344 8.72C98.2144 9.06667 98.461 9.33667 98.7744 9.53C99.0944 9.71667 99.4577 9.81 99.8644 9.81C100.244 9.81 100.578 9.72667 100.864 9.56C101.158 9.38667 101.384 9.13333 101.544 8.8H103.154C102.921 9.51333 102.511 10.07 101.924 10.47C101.344 10.8633 100.661 11.06 99.8744 11.06C99.2077 11.06 98.6044 10.91 98.0644 10.61C97.531 10.3033 97.1077 9.88 96.7944 9.34C96.4877 8.8 96.3344 8.18667 96.3344 7.5ZM106.81 11.09C106.277 11.09 105.797 10.9733 105.37 10.74C104.943 10.5 104.607 10.1633 104.36 9.73C104.12 9.29667 104 8.79667 104 8.23C104 7.66333 104.123 7.16333 104.37 6.73C104.623 6.29667 104.967 5.96333 105.4 5.73C105.833 5.49 106.317 5.37 106.85 5.37C107.383 5.37 107.867 5.49 108.3 5.73C108.733 5.96333 109.073 6.29667 109.32 6.73C109.573 7.16333 109.7 7.66333 109.7 8.23C109.7 8.79667 109.57 9.29667 109.31 9.73C109.057 10.1633 108.71 10.5 108.27 10.74C107.837 10.9733 107.35 11.09 106.81 11.09ZM106.81 9.87C107.063 9.87 107.3 9.81 107.52 9.69C107.747 9.56333 107.927 9.37667 108.06 9.13C108.193 8.88333 108.26 8.58333 108.26 8.23C108.26 7.70333 108.12 7.3 107.84 7.02C107.567 6.73333 107.23 6.59 106.83 6.59C106.43 6.59 106.093 6.73333 105.82 7.02C105.553 7.3 105.42 7.70333 105.42 8.23C105.42 8.75667 105.55 9.16333 105.81 9.45C106.077 9.73 106.41 9.87 106.81 9.87ZM117.607 5.38C118.287 5.38 118.834 5.59 119.247 6.01C119.667 6.42333 119.877 7.00333 119.877 7.75V11H118.477V7.94C118.477 7.50667 118.367 7.17667 118.147 6.95C117.927 6.71667 117.627 6.6 117.247 6.6C116.867 6.6 116.564 6.71667 116.337 6.95C116.117 7.17667 116.007 7.50667 116.007 7.94V11H114.607V7.94C114.607 7.50667 114.497 7.17667 114.277 6.95C114.057 6.71667 113.757 6.6 113.377 6.6C112.99 6.6 112.684 6.71667 112.457 6.95C112.237 7.17667 112.127 7.50667 112.127 7.94V11H110.727V5.46H112.127V6.13C112.307 5.89667 112.537 5.71333 112.817 5.58C113.104 5.44667 113.417 5.38 113.757 5.38C114.19 5.38 114.577 5.47333 114.917 5.66C115.257 5.84 115.52 6.1 115.707 6.44C115.887 6.12 116.147 5.86333 116.487 5.67C116.834 5.47667 117.207 5.38 117.607 5.38Z" fill="#FF561C"/>
<rect x="46" y="16" width="74" height="2" rx="1" fill="url(#paint0_linear_592_1952)"/>
<rect x="46" y="55" width="74" height="2" rx="1" fill="url(#paint1_linear_592_1952)"/>
<rect x="47" y="135" width="74" height="2" rx="1" fill="url(#paint2_linear_592_1952)"/>
<rect x="47" y="195" width="74" height="2" rx="1" fill="url(#paint3_linear_592_1952)"/>
<rect x="47" y="114" width="74" height="2" rx="1" fill="url(#paint4_linear_592_1952)"/>
<rect x="46" y="20" width="74" height="2" rx="1" fill="url(#paint5_linear_592_1952)"/>
<rect x="132" y="26" width="27" height="12" rx="4" fill="url(#paint6_linear_592_1952)"/>
<rect x="132" y="41" width="27" height="12" rx="4" fill="url(#paint7_linear_592_1952)"/>
<rect x="6" y="141" width="22" height="15.2174" rx="4" fill="url(#paint8_linear_592_1952)"/>
<rect x="6" y="118" width="22" height="15.2174" rx="4" fill="url(#paint9_linear_592_1952)"/>
<rect x="84" y="141" width="22" height="15.2174" rx="4" fill="url(#paint10_linear_592_1952)"/>
<rect x="84" y="158.391" width="22" height="15.2174" rx="4" fill="url(#paint11_linear_592_1952)"/>
<rect x="6" y="158.391" width="22" height="15.2174" rx="4" fill="url(#paint12_linear_592_1952)"/>
<rect x="6" y="175.783" width="22" height="15.2174" rx="4" fill="url(#paint13_linear_592_1952)"/>
<rect x="32" y="141" width="22" height="15.2174" rx="4" fill="url(#paint14_linear_592_1952)"/>
<rect x="32" y="118" width="22" height="15.2174" rx="4" fill="url(#paint15_linear_592_1952)"/>
<rect x="110" y="141" width="22" height="15.2174" rx="4" fill="url(#paint16_linear_592_1952)"/>
<rect x="110" y="158.391" width="22" height="15.2174" rx="4" fill="url(#paint17_linear_592_1952)"/>
<rect x="32" y="158.391" width="22" height="15.2174" rx="4" fill="url(#paint18_linear_592_1952)"/>
<rect x="32" y="175.783" width="22" height="15.2174" rx="4" fill="url(#paint19_linear_592_1952)"/>
<rect x="58" y="141" width="22" height="15.2174" rx="4" fill="url(#paint20_linear_592_1952)"/>
<rect x="136" y="141" width="22" height="15.2174" rx="4" fill="url(#paint21_linear_592_1952)"/>
<rect x="136" y="158.391" width="22" height="15.2174" rx="4" fill="url(#paint22_linear_592_1952)"/>
<rect x="58" y="158.391" width="22" height="15.2174" rx="4" fill="url(#paint23_linear_592_1952)"/>
<rect x="58" y="175.783" width="22" height="15.2174" rx="4" fill="url(#paint24_linear_592_1952)"/>
<rect id="plein" x="6" y="61" width="22" height="15.2174" rx="4" fill="url(#paint25_linear_592_1952)"/>
<rect x="84" y="61" width="22" height="15.2174" rx="4" fill="url(#paint26_linear_592_1952)"/>
<rect x="84" y="78.3911" width="22" height="15.2174" rx="4" fill="url(#paint27_linear_592_1952)"/>
<rect x="6" y="78.3911" width="22" height="15.2174" rx="4" fill="url(#paint28_linear_592_1952)"/>
<rect x="6" y="95.7827" width="22" height="15.2174" rx="4" fill="url(#paint29_linear_592_1952)"/>
<rect x="32" y="61" width="22" height="15.2174" rx="4" fill="url(#paint30_linear_592_1952)"/>
<rect x="110" y="61" width="22" height="15.2174" rx="4" fill="url(#paint31_linear_592_1952)"/>
<rect x="110" y="78.3911" width="22" height="15.2174" rx="4" fill="url(#paint32_linear_592_1952)"/>
<rect x="32" y="78.3911" width="22" height="15.2174" rx="4" fill="url(#paint33_linear_592_1952)"/>
<rect x="32" y="95.7827" width="22" height="15.2174" rx="4" fill="url(#paint34_linear_592_1952)"/>
<rect x="58" y="61" width="22" height="15.2174" rx="4" fill="url(#paint35_linear_592_1952)"/>
<rect x="136" y="61" width="22" height="15.2174" rx="4" fill="url(#paint36_linear_592_1952)"/>
<rect x="136" y="78.3911" width="22" height="15.2174" rx="4" fill="url(#paint37_linear_592_1952)"/>
<rect x="58" y="78.3911" width="22" height="15.2174" rx="4" fill="url(#paint38_linear_592_1952)"/>
<rect x="58" y="95.7827" width="22" height="15.2174" rx="4" fill="url(#paint39_linear_592_1952)"/>
<rect x="6" y="203" width="22" height="15.2174" rx="4" fill="url(#paint40_linear_592_1952)"/>
<rect x="84" y="203" width="22" height="15.2174" rx="4" fill="url(#paint41_linear_592_1952)"/>
<rect x="84" y="220.391" width="22" height="15.2174" rx="4" fill="url(#paint42_linear_592_1952)"/>
<rect x="6" y="220.391" width="22" height="15.2174" rx="4" fill="url(#paint43_linear_592_1952)"/>
<rect x="6" y="237.783" width="22" height="15.2174" rx="4" fill="url(#paint44_linear_592_1952)"/>
<rect x="32" y="203" width="22" height="15.2174" rx="4" fill="url(#paint45_linear_592_1952)"/>
<rect x="110" y="203" width="22" height="15.2174" rx="4" fill="url(#paint46_linear_592_1952)"/>
<rect x="110" y="220.391" width="22" height="15.2174" rx="4" fill="url(#paint47_linear_592_1952)"/>
<rect x="32" y="220.391" width="22" height="15.2174" rx="4" fill="url(#paint48_linear_592_1952)"/>
<rect x="32" y="237.783" width="22" height="15.2174" rx="4" fill="url(#paint49_linear_592_1952)"/>
<rect x="58" y="203" width="22" height="15.2174" rx="4" fill="url(#paint50_linear_592_1952)"/>
<rect x="136" y="203" width="22" height="15.2174" rx="4" fill="url(#paint51_linear_592_1952)"/>
<rect x="136" y="220.391" width="22" height="15.2174" rx="4" fill="url(#paint52_linear_592_1952)"/>
<rect x="58" y="220.391" width="22" height="15.2174" rx="4" fill="url(#paint53_linear_592_1952)"/>
<rect x="58" y="237.783" width="22" height="15.2174" rx="4" fill="url(#paint54_linear_592_1952)"/>
<rect id="sec1" x="6" y="26" width="33" height="5.41463" rx="2.70732" fill="url(#paint55_linear_592_1952)"/>
<rect id="sec2" x="6" y="33.1709" width="33" height="5.26829" rx="2.63415" fill="url(#paint56_linear_592_1952)"/>
<rect id="sec3" x="6" y="40.1953" width="33" height="5.41463" rx="2.70732" fill="url(#paint57_linear_592_1952)"/>
<rect id="sec4" x="6" y="47.3657" width="33" height="5.63415" rx="2.81707" fill="url(#paint58_linear_592_1952)"/>
<rect id="mega_haut_slide" x="45" y="26" width="83" height="27" rx="4" fill="url(#paint59_linear_592_1952)"/>
<defs>
<linearGradient id="paint0_linear_592_1952" x1="46" y1="17" x2="120" y2="17" gradientUnits="userSpaceOnUse">
<stop stop-color="#E2E8F0"/>
<stop offset="1" stop-color="#EDF2F7"/>
</linearGradient>
<linearGradient id="paint1_linear_592_1952" x1="46" y1="56" x2="120" y2="56" gradientUnits="userSpaceOnUse">
<stop stop-color="#E2E8F0"/>
<stop offset="1" stop-color="#EDF2F7"/>
</linearGradient>
<linearGradient id="paint2_linear_592_1952" x1="47" y1="136" x2="121" y2="136" gradientUnits="userSpaceOnUse">
<stop stop-color="#E2E8F0"/>
<stop offset="1" stop-color="#EDF2F7"/>
</linearGradient>
<linearGradient id="paint3_linear_592_1952" x1="47" y1="196" x2="121" y2="196" gradientUnits="userSpaceOnUse">
<stop stop-color="#E2E8F0"/>
<stop offset="1" stop-color="#EDF2F7"/>
</linearGradient>
<linearGradient id="paint4_linear_592_1952" x1="47" y1="115" x2="121" y2="115" gradientUnits="userSpaceOnUse">
<stop stop-color="#E2E8F0"/>
<stop offset="1" stop-color="#EDF2F7"/>
</linearGradient>
<linearGradient id="paint5_linear_592_1952" x1="46" y1="21" x2="120" y2="21" gradientUnits="userSpaceOnUse">
<stop stop-color="#E2E8F0"/>
<stop offset="1" stop-color="#EDF2F7"/>
</linearGradient>
<linearGradient id="paint6_linear_592_1952" x1="132" y1="32" x2="159" y2="32" gradientUnits="userSpaceOnUse">
<stop stop-color="#E2E8F0"/>
<stop offset="1" stop-color="#EDF2F7"/>
</linearGradient>
<linearGradient id="paint7_linear_592_1952" x1="132" y1="47" x2="159" y2="47" gradientUnits="userSpaceOnUse">
<stop stop-color="#E2E8F0"/>
<stop offset="1" stop-color="#EDF2F7"/>
</linearGradient>
<linearGradient id="paint8_linear_592_1952" x1="6" y1="148.609" x2="28" y2="148.609" gradientUnits="userSpaceOnUse">
<stop stop-color="#E2E8F0"/>
<stop offset="1" stop-color="#EDF2F7"/>
</linearGradient>
<linearGradient id="paint9_linear_592_1952" x1="6" y1="125.609" x2="28" y2="125.609" gradientUnits="userSpaceOnUse">
<stop stop-color="#E2E8F0"/>
<stop offset="1" stop-color="#EDF2F7"/>
</linearGradient>
<linearGradient id="paint10_linear_592_1952" x1="84" y1="148.609" x2="106" y2="148.609" gradientUnits="userSpaceOnUse">
<stop stop-color="#E2E8F0"/>
<stop offset="1" stop-color="#EDF2F7"/>
</linearGradient>
<linearGradient id="paint11_linear_592_1952" x1="84" y1="166" x2="106" y2="166" gradientUnits="userSpaceOnUse">
<stop stop-color="#E2E8F0"/>
<stop offset="1" stop-color="#EDF2F7"/>
</linearGradient>
<linearGradient id="paint12_linear_592_1952" x1="6" y1="166" x2="28" y2="166" gradientUnits="userSpaceOnUse">
<stop stop-color="#E2E8F0"/>
<stop offset="1" stop-color="#EDF2F7"/>
</linearGradient>
<linearGradient id="paint13_linear_592_1952" x1="6" y1="183.391" x2="28" y2="183.391" gradientUnits="userSpaceOnUse">
<stop stop-color="#E2E8F0"/>
<stop offset="1" stop-color="#EDF2F7"/>
</linearGradient>
<linearGradient id="paint14_linear_592_1952" x1="32" y1="148.609" x2="54" y2="148.609" gradientUnits="userSpaceOnUse">
<stop stop-color="#E2E8F0"/>
<stop offset="1" stop-color="#EDF2F7"/>
</linearGradient>
<linearGradient id="paint15_linear_592_1952" x1="32" y1="125.609" x2="54" y2="125.609" gradientUnits="userSpaceOnUse">
<stop stop-color="#E2E8F0"/>
<stop offset="1" stop-color="#EDF2F7"/>
</linearGradient>
<linearGradient id="paint16_linear_592_1952" x1="110" y1="148.609" x2="132" y2="148.609" gradientUnits="userSpaceOnUse">
<stop stop-color="#E2E8F0"/>
<stop offset="1" stop-color="#EDF2F7"/>
</linearGradient>
<linearGradient id="paint17_linear_592_1952" x1="110" y1="166" x2="132" y2="166" gradientUnits="userSpaceOnUse">
<stop stop-color="#E2E8F0"/>
<stop offset="1" stop-color="#EDF2F7"/>
</linearGradient>
<linearGradient id="paint18_linear_592_1952" x1="32" y1="166" x2="54" y2="166" gradientUnits="userSpaceOnUse">
<stop stop-color="#E2E8F0"/>
<stop offset="1" stop-color="#EDF2F7"/>
</linearGradient>
<linearGradient id="paint19_linear_592_1952" x1="32" y1="183.391" x2="54" y2="183.391" gradientUnits="userSpaceOnUse">
<stop stop-color="#E2E8F0"/>
<stop offset="1" stop-color="#EDF2F7"/>
</linearGradient>
<linearGradient id="paint20_linear_592_1952" x1="58" y1="148.609" x2="80" y2="148.609" gradientUnits="userSpaceOnUse">
<stop stop-color="#E2E8F0"/>
<stop offset="1" stop-color="#EDF2F7"/>
</linearGradient>
<linearGradient id="paint21_linear_592_1952" x1="136" y1="148.609" x2="158" y2="148.609" gradientUnits="userSpaceOnUse">
<stop stop-color="#E2E8F0"/>
<stop offset="1" stop-color="#EDF2F7"/>
</linearGradient>
<linearGradient id="paint22_linear_592_1952" x1="136" y1="166" x2="158" y2="166" gradientUnits="userSpaceOnUse">
<stop stop-color="#E2E8F0"/>
<stop offset="1" stop-color="#EDF2F7"/>
</linearGradient>
<linearGradient id="paint23_linear_592_1952" x1="58" y1="166" x2="80" y2="166" gradientUnits="userSpaceOnUse">
<stop stop-color="#E2E8F0"/>
<stop offset="1" stop-color="#EDF2F7"/>
</linearGradient>
<linearGradient id="paint24_linear_592_1952" x1="58" y1="183.391" x2="80" y2="183.391" gradientUnits="userSpaceOnUse">
<stop stop-color="#E2E8F0"/>
<stop offset="1" stop-color="#EDF2F7"/>
</linearGradient>
<linearGradient id="paint25_linear_592_1952" x1="6" y1="68.6087" x2="28" y2="68.6087" gradientUnits="userSpaceOnUse">
<stop stop-color="#E2E8F0"/>
<stop offset="1" stop-color="#EDF2F7"/>
</linearGradient>
<linearGradient id="paint26_linear_592_1952" x1="84" y1="68.6087" x2="106" y2="68.6087" gradientUnits="userSpaceOnUse">
<stop stop-color="#E2E8F0"/>
<stop offset="1" stop-color="#EDF2F7"/>
</linearGradient>
<linearGradient id="paint27_linear_592_1952" x1="84" y1="85.9998" x2="106" y2="85.9998" gradientUnits="userSpaceOnUse">
<stop stop-color="#E2E8F0"/>
<stop offset="1" stop-color="#EDF2F7"/>
</linearGradient>
<linearGradient id="paint28_linear_592_1952" x1="6" y1="85.9998" x2="28" y2="85.9998" gradientUnits="userSpaceOnUse">
<stop stop-color="#E2E8F0"/>
<stop offset="1" stop-color="#EDF2F7"/>
</linearGradient>
<linearGradient id="paint29_linear_592_1952" x1="6" y1="103.391" x2="28" y2="103.391" gradientUnits="userSpaceOnUse">
<stop stop-color="#E2E8F0"/>
<stop offset="1" stop-color="#EDF2F7"/>
</linearGradient>
<linearGradient id="paint30_linear_592_1952" x1="32" y1="68.6087" x2="54" y2="68.6087" gradientUnits="userSpaceOnUse">
<stop stop-color="#E2E8F0"/>
<stop offset="1" stop-color="#EDF2F7"/>
</linearGradient>
<linearGradient id="paint31_linear_592_1952" x1="110" y1="68.6087" x2="132" y2="68.6087" gradientUnits="userSpaceOnUse">
<stop stop-color="#E2E8F0"/>
<stop offset="1" stop-color="#EDF2F7"/>
</linearGradient>
<linearGradient id="paint32_linear_592_1952" x1="110" y1="85.9998" x2="132" y2="85.9998" gradientUnits="userSpaceOnUse">
<stop stop-color="#E2E8F0"/>
<stop offset="1" stop-color="#EDF2F7"/>
</linearGradient>
<linearGradient id="paint33_linear_592_1952" x1="32" y1="85.9998" x2="54" y2="85.9998" gradientUnits="userSpaceOnUse">
<stop stop-color="#E2E8F0"/>
<stop offset="1" stop-color="#EDF2F7"/>
</linearGradient>
<linearGradient id="paint34_linear_592_1952" x1="32" y1="103.391" x2="54" y2="103.391" gradientUnits="userSpaceOnUse">
<stop stop-color="#E2E8F0"/>
<stop offset="1" stop-color="#EDF2F7"/>
</linearGradient>
<linearGradient id="paint35_linear_592_1952" x1="58" y1="68.6087" x2="80" y2="68.6087" gradientUnits="userSpaceOnUse">
<stop stop-color="#E2E8F0"/>
<stop offset="1" stop-color="#EDF2F7"/>
</linearGradient>
<linearGradient id="paint36_linear_592_1952" x1="136" y1="68.6087" x2="158" y2="68.6087" gradientUnits="userSpaceOnUse">
<stop stop-color="#E2E8F0"/>
<stop offset="1" stop-color="#EDF2F7"/>
</linearGradient>
<linearGradient id="paint37_linear_592_1952" x1="136" y1="85.9998" x2="158" y2="85.9998" gradientUnits="userSpaceOnUse">
<stop stop-color="#E2E8F0"/>
<stop offset="1" stop-color="#EDF2F7"/>
</linearGradient>
<linearGradient id="paint38_linear_592_1952" x1="58" y1="85.9998" x2="80" y2="85.9998" gradientUnits="userSpaceOnUse">
<stop stop-color="#E2E8F0"/>
<stop offset="1" stop-color="#EDF2F7"/>
</linearGradient>
<linearGradient id="paint39_linear_592_1952" x1="58" y1="103.391" x2="80" y2="103.391" gradientUnits="userSpaceOnUse">
<stop stop-color="#E2E8F0"/>
<stop offset="1" stop-color="#EDF2F7"/>
</linearGradient>
<linearGradient id="paint40_linear_592_1952" x1="6" y1="210.609" x2="28" y2="210.609" gradientUnits="userSpaceOnUse">
<stop stop-color="#E2E8F0"/>
<stop offset="1" stop-color="#EDF2F7"/>
</linearGradient>
<linearGradient id="paint41_linear_592_1952" x1="84" y1="210.609" x2="106" y2="210.609" gradientUnits="userSpaceOnUse">
<stop stop-color="#E2E8F0"/>
<stop offset="1" stop-color="#EDF2F7"/>
</linearGradient>
<linearGradient id="paint42_linear_592_1952" x1="84" y1="228" x2="106" y2="228" gradientUnits="userSpaceOnUse">
<stop stop-color="#E2E8F0"/>
<stop offset="1" stop-color="#EDF2F7"/>
</linearGradient>
<linearGradient id="paint43_linear_592_1952" x1="6" y1="228" x2="28" y2="228" gradientUnits="userSpaceOnUse">
<stop stop-color="#E2E8F0"/>
<stop offset="1" stop-color="#EDF2F7"/>
</linearGradient>
<linearGradient id="paint44_linear_592_1952" x1="6" y1="245.391" x2="28" y2="245.391" gradientUnits="userSpaceOnUse">
<stop stop-color="#E2E8F0"/>
<stop offset="1" stop-color="#EDF2F7"/>
</linearGradient>
<linearGradient id="paint45_linear_592_1952" x1="32" y1="210.609" x2="54" y2="210.609" gradientUnits="userSpaceOnUse">
<stop stop-color="#E2E8F0"/>
<stop offset="1" stop-color="#EDF2F7"/>
</linearGradient>
<linearGradient id="paint46_linear_592_1952" x1="110" y1="210.609" x2="132" y2="210.609" gradientUnits="userSpaceOnUse">
<stop stop-color="#E2E8F0"/>
<stop offset="1" stop-color="#EDF2F7"/>
</linearGradient>
<linearGradient id="paint47_linear_592_1952" x1="110" y1="228" x2="132" y2="228" gradientUnits="userSpaceOnUse">
<stop stop-color="#E2E8F0"/>
<stop offset="1" stop-color="#EDF2F7"/>
</linearGradient>
<linearGradient id="paint48_linear_592_1952" x1="32" y1="228" x2="54" y2="228" gradientUnits="userSpaceOnUse">
<stop stop-color="#E2E8F0"/>
<stop offset="1" stop-color="#EDF2F7"/>
</linearGradient>
<linearGradient id="paint49_linear_592_1952" x1="32" y1="245.391" x2="54" y2="245.391" gradientUnits="userSpaceOnUse">
<stop stop-color="#E2E8F0"/>
<stop offset="1" stop-color="#EDF2F7"/>
</linearGradient>
<linearGradient id="paint50_linear_592_1952" x1="58" y1="210.609" x2="80" y2="210.609" gradientUnits="userSpaceOnUse">
<stop stop-color="#E2E8F0"/>
<stop offset="1" stop-color="#EDF2F7"/>
</linearGradient>
<linearGradient id="paint51_linear_592_1952" x1="136" y1="210.609" x2="158" y2="210.609" gradientUnits="userSpaceOnUse">
<stop stop-color="#E2E8F0"/>
<stop offset="1" stop-color="#EDF2F7"/>
</linearGradient>
<linearGradient id="paint52_linear_592_1952" x1="136" y1="228" x2="158" y2="228" gradientUnits="userSpaceOnUse">
<stop stop-color="#E2E8F0"/>
<stop offset="1" stop-color="#EDF2F7"/>
</linearGradient>
<linearGradient id="paint53_linear_592_1952" x1="58" y1="228" x2="80" y2="228" gradientUnits="userSpaceOnUse">
<stop stop-color="#E2E8F0"/>
<stop offset="1" stop-color="#EDF2F7"/>
</linearGradient>
<linearGradient id="paint54_linear_592_1952" x1="58" y1="245.391" x2="80" y2="245.391" gradientUnits="userSpaceOnUse">
<stop stop-color="#E2E8F0"/>
<stop offset="1" stop-color="#EDF2F7"/>
</linearGradient>
<linearGradient id="paint55_linear_592_1952" x1="6" y1="28.7073" x2="39" y2="28.7073" gradientUnits="userSpaceOnUse">
<stop stop-color="#E2E8F0"/>
<stop offset="1" stop-color="#EDF2F7"/>
</linearGradient>
<linearGradient id="paint56_linear_592_1952" x1="6" y1="35.805" x2="39" y2="35.805" gradientUnits="userSpaceOnUse">
<stop stop-color="#E2E8F0"/>
<stop offset="1" stop-color="#EDF2F7"/>
</linearGradient>
<linearGradient id="paint57_linear_592_1952" x1="6" y1="42.9026" x2="39" y2="42.9026" gradientUnits="userSpaceOnUse">
<stop stop-color="#E2E8F0"/>
<stop offset="1" stop-color="#EDF2F7"/>
</linearGradient>
<linearGradient id="paint58_linear_592_1952" x1="6" y1="50.1828" x2="39" y2="50.1828" gradientUnits="userSpaceOnUse">
<stop stop-color="#E2E8F0"/>
<stop offset="1" stop-color="#EDF2F7"/>
</linearGradient>
<linearGradient id="paint59_linear_592_1952" x1="45" y1="39.5" x2="128" y2="39.5" gradientUnits="userSpaceOnUse">
<stop stop-color="#E2E8F0"/>
<stop offset="1" stop-color="#EDF2F7"/>
</linearGradient>
</defs>
</svg>
